<svg width="100" height="33" viewBox="0 0 100 33" fill="none" xmlns="http://www.w3.org/2000/svg">
<path fill-rule="evenodd" clip-rule="evenodd" d="M0.695646 0.942035C2.87614 -0.517441 4.23487 -0.123224 6.3545 1.12604C7.6442 1.83312 8.85076 2.78535 9.76057 3.94726C11.5947 7.09698 11.4321 10.9845 11.2798 14.6253C11.2501 15.3355 11.2208 16.0364 11.2068 16.7205C11.2045 16.7962 11.2023 16.8721 11.2001 16.9481C11.1527 18.5646 11.1035 20.2444 10.3171 21.6941C8.48281 23.9475 5.51588 25.6821 2.56961 25.6439C0.0760633 25.7744 -0.00165647 25.2077 0.239111 22.8713C0.298847 20.7625 0.214108 18.6519 0.129402 16.542C0.0538082 14.6592 -0.0217589 12.777 0.00540876 10.8974C0.21411 8.30221 0.229872 5.67865 0.121173 3.0802C0.129325 2.34691 0.234764 1.53609 0.695646 0.942035ZM8.94007 15.6112C8.94191 15.0794 8.94374 14.5502 8.985 14.0364H8.98554C8.99741 13.6446 9.01423 13.2518 9.03107 12.8584V12.8584C9.08907 11.5039 9.14734 10.1429 9.00457 8.79743C8.77902 6.98742 7.5779 5.51211 6.35178 4.24592C5.72513 3.69882 5.02402 3.26256 4.30933 2.84542C3.71203 2.23607 2.47558 2.38295 2.37232 3.3401C2.11341 3.58654 2.16502 3.94131 2.21589 4.29101C2.24223 4.47205 2.26836 4.65173 2.25112 4.81432C2.24314 5.28984 2.26709 5.76445 2.29104 6.23908C2.31928 6.79883 2.34752 7.35862 2.32341 7.92C2.31497 8.21669 2.2752 8.51069 2.23545 8.80454C2.18559 9.17314 2.13576 9.54148 2.14786 9.91456C2.15869 10.3181 2.19096 10.7181 2.22313 11.1169C2.29431 11.999 2.36502 12.8755 2.20221 13.7726C2.02667 15.219 2.07926 16.6702 2.13175 18.1186L2.13176 18.1187C2.14363 18.4462 2.15549 18.7735 2.16471 19.1006C2.08317 19.7161 2.14795 20.3234 2.21302 20.9335L2.21303 20.9336L2.21305 20.9338L2.21306 20.9339C2.22302 21.0272 2.23298 21.1207 2.24243 21.2142C2.24291 21.3191 2.2397 21.4295 2.2364 21.5428C2.2176 22.1889 2.19614 22.9265 2.84353 23.2475C3.49537 23.4909 4.24473 23.0176 4.82202 22.653C4.92341 22.589 5.0195 22.5283 5.10881 22.4755C5.19493 22.4307 5.278 22.3878 5.35826 22.3463L5.35909 22.3459C6.6372 21.6854 7.20143 21.3939 7.98932 19.9556C8.92944 18.688 8.93479 17.1388 8.94007 15.6112Z" fill="black"/>
<path fill-rule="evenodd" clip-rule="evenodd" d="M15.1047 9.52526C16.4705 9.10975 18.0722 9.47448 19.2353 10.2744C20.743 11.3864 20.8862 13.3029 21.0194 15.0846C21.0463 15.4436 21.0727 15.7971 21.1098 16.1374C21.1219 16.18 21.1348 16.2235 21.1479 16.2677C21.2751 16.6975 21.4231 17.1973 21.1033 17.58C20.0364 18.5534 19.0508 18.4245 18.0273 18.2907C17.3735 18.2052 16.7042 18.1177 15.9885 18.3143C15.5758 18.5286 15.578 19.0525 15.5799 19.505V19.5053C15.5803 19.6142 15.5808 19.7189 15.5754 19.8142C15.6202 20.2727 15.5821 20.7306 15.544 21.1875C15.511 21.5832 15.4781 21.9781 15.4993 22.3717C15.6738 22.7304 16.1015 22.9439 16.464 23.0706C17.008 23.2214 17.3961 22.6702 17.7171 22.2144C17.8006 22.0959 17.8795 21.9839 17.9554 21.8923C18.064 21.6762 18.1218 21.4409 18.1796 21.2054C18.2388 20.9648 18.2979 20.724 18.4113 20.5033C18.5087 20.3584 18.5879 20.2016 18.6669 20.0452C18.7692 19.8427 18.8712 19.6408 19.0119 19.4659C19.4826 18.9264 20.3636 19.1372 20.781 19.6389C21.1873 20.146 21.0835 20.8833 20.9897 21.5502L20.9897 21.5502C20.9618 21.7487 20.9347 21.9409 20.9223 22.1189C20.4522 26.9516 14.3199 27.0291 12.9905 22.6649C12.6071 21.3529 12.6438 19.9798 12.6803 18.6123V18.6122C12.6964 18.0107 12.7125 17.4103 12.6927 16.8166C12.6991 16.5075 12.699 16.1837 12.6988 15.8511C12.6978 13.4633 12.6966 10.6237 15.1047 9.52526ZM16.8294 16.3755C16.9508 16.3734 17.0716 16.3713 17.189 16.3766C18.7293 16.554 18.7918 15.3266 18.4461 14.1729C18.2113 12.9711 17.9059 11.7519 16.4178 11.8463C15.407 11.8922 15.2158 12.9411 15.0559 13.8184L15.0559 13.8184C15.0219 14.0053 14.9892 14.1844 14.9504 14.3443C14.941 14.4604 14.9231 14.5833 14.9048 14.7091C14.8399 15.1539 14.7697 15.6358 15.0531 15.9856C15.1977 16.1718 15.5346 16.376 15.7254 16.1494C16.0405 16.3893 16.4385 16.3824 16.8294 16.3755Z" fill="black"/>
<path d="M29.01 8.87551C27.6062 8.51788 26.0833 8.816 24.8968 9.64538C24.2528 8.80453 22.7164 8.84821 22.2739 9.87034C22.1718 10.1033 22.2136 10.3463 22.2551 10.587C22.274 10.6971 22.2929 10.8068 22.2979 10.9149C22.3137 11.4132 22.3161 11.9118 22.3186 12.4105V12.4107C22.3212 12.9556 22.3239 13.5006 22.3441 14.0451C22.4076 17.0034 22.4153 19.9633 22.4055 22.9232C22.3131 24.019 22.2941 25.1995 23.5468 25.5882C24.4914 25.8563 25.3882 25.0133 25.4958 24.0698C25.5986 23.5578 25.5579 23.0422 25.517 22.5257C25.4994 22.3025 25.4817 22.079 25.4757 21.8557C25.4588 20.34 25.4599 18.8238 25.5431 17.3097C25.5603 16.9816 25.5661 16.648 25.572 16.3126C25.5916 15.1808 25.6116 14.0281 26.0741 12.9962C26.7116 11.896 27.917 10.9476 29.1366 11.8163C29.3059 11.8719 29.4886 11.9634 29.6769 12.0576C30.2374 12.3381 30.8484 12.6439 31.3068 12.1073C32.3596 10.3508 30.878 8.70461 29.01 8.87551Z" fill="black"/>
<path fill-rule="evenodd" clip-rule="evenodd" d="M35.9505 9.85399C35.9764 9.84316 36.0026 9.83218 36.0292 9.8212C37.2015 9.32597 38.5244 9.98282 39.4565 10.6964C42.4653 13.8054 42.0207 19.9753 40.8467 23.8519C40.3141 25.6276 39.5826 25.9082 37.8434 26.0977C37.6772 26.1167 37.4758 26.0828 37.2709 26.0484C36.7878 25.9671 36.2849 25.8825 36.1754 26.4799C35.9026 27.1254 35.9581 28.0205 36.0139 28.9205C36.116 30.5684 36.2191 32.2324 34.3096 32.409C33.0027 32.2778 32.9317 30.8502 32.8785 29.7791V29.779C32.873 29.6684 32.8677 29.5617 32.8612 29.4605C32.6698 28.0132 32.6863 26.5493 32.7028 25.087C32.7101 24.4437 32.7173 23.8007 32.7068 23.1596C32.7641 22.0491 32.75 20.9423 32.7358 19.8364C32.7251 19.001 32.7144 18.1661 32.7346 17.3304C32.9206 15.8312 32.8617 14.3638 32.8024 12.8883L32.8024 12.8881C32.7789 12.3029 32.7554 11.7164 32.7471 11.1262C32.0318 8.99345 34.0743 8.34097 35.327 9.94896C35.4262 10.0731 35.6659 9.97289 35.9505 9.85399ZM35.0526 20.6911C34.9276 22.2587 35.3047 23.3693 36.983 23.6783H36.9836C39.4038 23.6652 39.6021 20.725 39.5913 18.8805C39.7299 17.0449 39.2228 15.3129 38.2358 13.7716C37.6477 12.934 35.9944 11.4341 35.2134 12.7958C35.0457 13.3734 35.0583 13.989 35.0708 14.6026V14.6027C35.078 14.9513 35.0851 15.2994 35.0591 15.6394C35.0632 16.3169 35.0556 16.9944 35.048 17.6719L35.048 17.6725V17.6727C35.0366 18.679 35.0253 19.6852 35.0526 20.6911Z" fill="black"/>
<path fill-rule="evenodd" clip-rule="evenodd" d="M57.3809 13.255C56.032 12.7261 56.1334 12.6101 56.6759 11.9895C56.811 11.8349 56.9735 11.6491 57.1477 11.4177C58.5467 9.34617 58.3695 6.15312 56.7254 4.26503C54.9281 2.46048 52.0373 1.45201 49.5807 2.34691C49.5589 2.2661 49.297 2.615 49.1633 2.86179C49.0405 3.14188 49.074 3.43091 49.1076 3.72007V3.72024C49.1202 3.82897 49.1329 3.93777 49.1372 4.04608C49.229 7.8583 49.1214 11.6743 48.9883 15.4833C48.9434 16.5287 48.9454 17.5727 48.9475 18.617V18.6171C48.9497 19.7212 48.9519 20.8255 48.8986 21.9316C48.8912 22.2161 48.8745 22.4977 48.8582 22.7728C48.7547 24.5198 48.6666 26.0056 51.0726 26.3226C51.3834 26.3276 51.7083 26.3398 52.0419 26.3523L52.042 26.3523C54.4177 26.4416 57.2262 26.5472 58.4162 24.1686C59.2266 23.0903 59.4733 21.7416 59.494 20.4181C59.5086 20.2735 59.5244 20.1248 59.5405 19.9726C59.7989 17.5328 60.1506 14.213 57.3809 13.255ZM51.3901 7.66174V7.66161C51.3909 7.44175 51.3918 7.22182 51.3997 7.00216C51.4314 6.78193 51.4171 6.49604 51.4019 6.19255C51.3628 5.41181 51.318 4.51465 52.0345 4.31963C53.1215 4.12034 55.0602 5.70649 55.4162 6.69858C56.1433 8.83948 54.7265 11.836 52.2302 11.5864C51.0932 11.4022 51.2104 10.285 51.3111 9.3252C51.3372 9.07609 51.3622 8.83754 51.3639 8.62872C51.3875 8.30721 51.3888 7.98453 51.3901 7.66174ZM56.6026 22.0365C55.9015 23.5544 54.7955 24.4422 53.1525 24.2915C51.0111 24.339 50.8008 22.9406 50.9073 21.147C50.8785 20.7291 51.0136 20.3433 51.149 19.9564C51.2539 19.6569 51.3589 19.3567 51.3883 19.0405C51.5183 18.3749 51.3953 18.0455 51.2709 17.7126C51.1624 17.4221 51.0528 17.1288 51.1095 16.607C51.1472 16.3921 51.1312 16.0101 51.1138 15.5938C51.0809 14.8107 51.0429 13.9063 51.3481 13.7645C51.9068 12.008 53.9308 13.3216 54.9047 13.9643C57.4151 15.7645 58.1564 19.3665 56.6026 22.0365Z" fill="black"/>
<path d="M64.9464 13.2297L64.9464 13.2299C64.9364 13.38 64.9265 13.5283 64.9219 13.6727C64.94 14.0879 64.9769 14.502 65.0137 14.9161L65.0138 14.9163C65.0529 15.3559 65.092 15.7956 65.1088 16.2368C65.0164 18.1123 64.9403 19.9857 64.9186 21.8667C65.755 27.6123 61.5294 26.6715 62.1359 23.983C62.1922 23.4702 62.1869 22.9531 62.1816 22.4361C62.1784 22.1253 62.1752 21.8145 62.1854 21.5047C62.1762 21.1653 62.2291 20.8322 62.282 20.4994L62.282 20.4992C62.3322 20.1836 62.3823 19.8682 62.3794 19.5478C62.3325 18.9552 62.2786 18.3592 62.2246 17.7614L62.2245 17.7608L62.2245 17.7603L62.2244 17.7598L62.2244 17.7594C62.0285 15.593 61.8305 13.4023 61.9544 11.2632C61.7816 10.4999 62.8359 10.3792 63.3723 10.4338C63.8484 10.4851 64.23 10.8351 64.5371 11.1797C65.0449 11.7477 64.9943 12.5087 64.9464 13.2297Z" fill="black"/>
<path d="M71.3655 10.1313C71.2822 10.1791 71.2057 10.2276 71.1335 10.2733C70.7624 10.5083 70.5072 10.6698 70.0513 10.2804C69.5334 9.87689 68.6605 9.33798 68.0301 9.84359C67.6829 10.13 67.6975 10.5826 67.7111 11.0043C67.7146 11.1107 67.7179 11.2152 67.7154 11.3145C67.6067 13.0776 67.6611 14.8412 67.7654 16.6031C67.7728 18.0518 67.6493 19.497 67.5258 20.9407C67.4867 21.3982 67.4476 21.8555 67.4127 22.3127C67.2578 23.6663 67.0817 25.775 68.8855 25.9879C70.1492 26.3112 70.2954 25.1629 70.3263 24.055C70.3389 23.7725 70.3567 23.4902 70.3745 23.2078C70.4093 22.6564 70.4441 22.105 70.4394 21.5522C70.4144 19.8863 70.4269 18.2259 70.6111 16.5682C70.6418 16.3471 70.6548 16.1002 70.6683 15.8443C70.7113 15.026 70.7591 14.1156 71.4063 13.6618C71.865 13.2851 72.5628 13.0907 73.1281 13.3135C73.4739 13.4923 73.6824 13.8218 73.8917 14.1527C74.0397 14.3865 74.1881 14.621 74.3857 14.8035C74.7189 15.1622 75.1232 15.5483 75.6357 15.5745C80.0804 14.3334 75.0613 7.73927 71.3655 10.1313Z" fill="black"/>
<path fill-rule="evenodd" clip-rule="evenodd" d="M88.7459 5.84518C89.0067 10.5752 89.0209 15.3107 88.9421 20.0463C88.9167 20.4293 88.948 20.9301 88.9819 21.4721C89.1034 23.4157 89.258 25.8891 86.9512 25.3605C86.3518 25.265 85.9007 24.7698 85.6958 24.2183C85.6684 24.1633 85.6491 24.1016 85.6297 24.0397C85.5876 23.905 85.545 23.769 85.4181 23.698C85.2262 23.8554 85.0429 24.0261 84.8589 24.1974C84.484 24.5464 84.1067 24.8977 83.6506 25.1438C81.0359 25.953 79.0239 22.8402 79.063 20.5027C78.8777 17.8273 78.801 9.09119 82.8408 9.69179C83.9066 10.0369 85.0197 10.7199 85.4979 11.7726H85.6007C85.7381 10.6782 85.694 9.56532 85.6498 8.45231C85.5922 6.99891 85.5345 5.54522 85.8811 4.13181C86.2159 2.60572 87.9464 2.93059 88.5247 4.10778C88.7515 4.59621 88.7489 5.14731 88.7464 5.6792V5.67927C88.7461 5.73481 88.7459 5.79014 88.7459 5.84518ZM83.3827 22.0184C84.3006 22.0976 85.0132 21.3354 85.448 20.6016C86.6132 19.361 86.5349 17.5805 86.4561 15.9944C86.4891 15.2939 86.2769 15.0073 85.9395 14.5516L85.9394 14.5515L85.9391 14.551C85.8923 14.4879 85.8432 14.4215 85.792 14.3503C85.0463 13.2015 84.4838 12.5185 83.0093 12.483C81.9832 12.6482 81.5882 14.059 81.3047 15.0717L81.3046 15.072L81.3045 15.0725C81.2612 15.2272 81.2204 15.3727 81.1804 15.5029C80.7799 17.7885 80.3821 21.4763 83.3827 22.0184Z" fill="black"/>
<path d="M98.4706 9.52253C95.0205 4.63086 89.6709 10.934 92.7324 14.9864C92.9678 15.307 93.2118 15.6252 93.4566 15.9445C94.3932 17.1661 95.3424 18.404 95.8711 19.8519C96.3993 21.3212 94.9205 22.1997 94.4471 20.4716C94.3656 19.2283 92.5193 16.4699 91.359 18.2275C90.6611 21.5249 91.6144 24.3974 95.1536 25.2164C99.0125 25.7215 99.3331 22.0665 98.8141 19.1557C98.5306 18.1411 97.769 17.2085 96.9971 16.2635C95.8998 14.92 94.7819 13.5512 94.9873 11.8851C95.1504 11.3937 95.7906 10.9569 96.2814 11.2375C96.4944 11.4661 96.6483 11.7411 96.8026 12.0169C96.9506 12.2815 97.099 12.5467 97.3004 12.7724C97.368 12.8296 97.4384 12.8916 97.5114 12.9559C98.0322 13.4149 98.6835 13.9888 99.369 13.7464C100.835 12.5753 99.4114 10.5687 98.4706 9.52253Z" fill="black"/>
<path d="M64.6365 5.28552C64.6126 6.56809 64.3267 8.10455 62.6636 7.51323C61.7312 7.02786 61.7718 6.05671 61.8114 5.11171C61.8278 4.72043 61.8439 4.33364 61.7908 3.98766C61.8004 3.95341 61.81 3.91877 61.8197 3.88383C61.9788 3.30937 62.1601 2.65511 62.7191 2.37203C63.3675 2.07282 64.2088 2.33708 64.5822 2.94643C65.0266 3.58211 64.8562 4.32389 64.6953 5.02458C64.6751 5.1123 64.6551 5.19938 64.6365 5.28552Z" fill="black"/>
</svg>
