<svg width="48" height="48" viewBox="0 0 48 48" fill="none" xmlns="http://www.w3.org/2000/svg">
<path d="M19.3338 13.2048C19.3338 13.2048 18.2694 13.7408 17.9614 16.6144C17.6534 19.488 17.7562 25.848 23.0414 27.466C28.3266 29.084 31.039 25.1624 31.3762 23.0436C31.7134 20.9248 31.7134 13.8436 27.8134 12.4584C23.9134 11.0732 21.4802 11.7676 19.3338 13.2048Z" fill="white"/>
<path d="M37.0553 12.6638C39.3294 12.935 40.5906 16.209 40.6422 19.029C40.6938 21.849 41.1538 25.619 37.3146 25.3966C33.4753 25.1742 33.1505 20.617 33.5097 17.8974C33.8689 15.1778 34.9053 12.407 37.0553 12.6638Z" fill="white"/>
<path d="M31.3763 23.0437C31.3799 20.4089 31.7543 17.3941 30.3811 15.0321C26.8027 8.87613 17.9843 10.8341 17.2823 17.4493C17.3331 18.7249 17.9403 24.3657 19.1059 25.5117C22.7375 29.3197 30.3759 28.9757 31.3763 23.0437ZM39.8203 25.3181C39.8203 25.3181 40.4423 30.9997 38.6387 28.8801C36.8351 26.7605 32.9587 24.8749 31.0463 27.8901C29.5203 29.6917 29.1819 32.4701 31.2663 34.4093C32.0147 35.1057 35.2439 36.8173 34.3015 37.3933C23.6659 43.8957 11.0491 38.2705 8.0367 30.1229C3.7547 18.5437 12.4959 1.13654 29.6035 6.50933C33.2603 7.65773 36.7119 12.1841 36.7119 12.1841C30.7131 16.1861 33.5115 24.0665 35.5387 25.0413C36.8411 25.6677 39.8203 25.3181 39.8203 25.3181Z" fill="#00D2DB"/>
<path d="M38.3454 43.7704C38.0658 43.2048 38.1198 42.542 38.0226 41.9308C37.9754 41.4972 37.9242 41.0644 37.8662 40.6324C37.735 39.2976 37.3166 37.9684 36.4246 36.942C34.8598 35.358 31.6158 35.3324 30.7038 33.0928C30.0354 31.7136 30.5298 29.826 31.257 28.47C33.0758 26.0812 36.3374 27.3844 37.2774 28.144C37.2758 28.1424 37.2738 28.1412 37.2722 28.1396C37.2642 28.1328 37.2562 28.126 37.2482 28.1192C39.339 29.8256 39.9702 32.9928 40.339 35.5256C40.4942 36.9336 40.5597 38.3492 40.5889 39.7648C40.6029 40.816 40.7241 41.8804 40.543 42.9228C40.4774 43.278 40.353 43.6196 40.1106 43.8936C39.6578 44.4468 38.699 44.4188 38.3454 43.7704Z" fill="#E18C2B"/>
<path d="M35.2176 22.577C33.8852 21.6853 35.7612 20.3941 36.2336 21.6749C36.8904 20.6361 38.7864 22.371 37.1224 22.8686C37.2856 23.7098 36.3616 24.1122 36.196 23.2246C35.5876 23.4442 35.1976 23.2006 35.2176 22.577Z" fill="black"/>
<path d="M36.3516 21.0625C36.354 21.0649 36.3564 21.0669 36.3588 21.0689C36.3596 21.0697 36.3608 21.0709 36.362 21.0713C36.3604 21.0665 36.3568 21.0633 36.3516 21.0625Z" fill="black"/>
<path d="M23.4946 22.0321C23.4235 22.0864 23.3574 22.1409 23.2934 22.1935C23.0624 22.3834 22.8601 22.5498 22.5606 22.6021C22.5079 22.5699 22.427 22.4961 22.3393 22.4159C22.206 22.2941 22.0567 22.1578 21.9658 22.1305C21.9666 22.1313 21.967 22.1321 21.9678 22.1329C21.187 22.0293 21.1102 23.1917 21.4334 23.6813C20.0926 24.2605 20.9254 25.6633 22.2262 25.0269C22.2862 25.0388 22.2875 25.1572 22.2889 25.2972C22.2928 25.6669 22.2982 26.1873 23.3898 25.2985C24.3286 25.9589 24.6542 24.7081 23.857 23.8925C23.969 23.7819 24.135 23.7138 24.3014 23.6454C24.5117 23.5591 24.7228 23.4724 24.8266 23.2993C25.3042 22.4733 24.2978 21.5209 23.4946 22.0321Z" fill="black"/>
<path fill-rule="evenodd" clip-rule="evenodd" d="M41.3663 24.5066C43.4136 20.8886 41.6987 13.1366 37.7019 11.3794C32.2731 5.53575 22.8239 1.73935 15.4379 6.16135C6.27589 11.947 1.68109 27.3502 10.4775 35.3566C14.1427 39.5686 19.5315 41.5138 25.0379 41.505C28.7075 41.265 32.7531 40.5394 35.4271 37.807C37.0365 38.8953 37.1003 40.8199 37.1591 42.5927L37.1591 42.5929C37.1669 42.8288 37.1747 43.062 37.1859 43.2902C37.2387 46.965 41.1831 45.667 41.4275 42.949C41.6719 40.231 41.5039 32.7414 40.0951 30.0714C40.7903 28.2786 41.1427 26.4146 41.3663 24.5066ZM40.0259 18.4542C41.9711 26.411 34.5051 26.7486 33.7975 20.569C33.3119 13.507 37.9163 9.29255 40.0259 18.4542ZM28.9255 38.9866C23.2039 40.4574 16.5051 39.0294 12.4351 34.5982C3.92549 27.7814 7.8087 14.0638 15.6119 8.28455C21.8699 3.85455 30.0287 6.93095 35.2799 11.5142C33.6291 12.445 32.6251 14.3346 32.2715 16.1506C30.7487 12.1698 27.0855 9.84735 22.8295 10.349C19.5179 10.2718 17.4135 13.1694 16.7123 16.121C16.1967 18.0814 16.0635 20.2494 16.6771 22.2154C16.7832 22.4894 16.8867 22.7705 16.9913 23.0546C17.6855 24.9409 18.428 26.9585 20.3219 27.893C24.8599 30.7686 31.2087 28.6818 32.5467 23.3246C32.5949 23.4386 32.6437 23.5617 32.6944 23.6893L32.6944 23.6894C33.036 24.5502 33.4606 25.6201 34.3147 25.5494C29.9875 25.9078 28.3867 30.8082 29.4239 33.3582C30.1505 35.1901 31.7668 35.9392 33.4018 36.6969C33.4897 36.7376 33.5777 36.7784 33.6655 36.8194C32.3467 38.0266 30.6579 38.6562 28.9255 38.9866ZM30.6763 22.8934C29.6107 26.5506 25.7031 28.259 22.2603 26.6946C21.3923 26.3102 20.5115 25.8866 19.9903 25.0534C18.6971 22.7658 17.7775 20.1114 18.3483 17.4666C18.3621 17.3914 18.3764 17.2974 18.3931 17.1878C18.5523 16.1419 18.9272 13.6798 21.1003 12.7138C27.6187 9.81615 32.4507 16.611 30.6763 22.8934ZM39.2127 43.7102C38.6411 43.7102 38.6353 42.6997 38.6282 41.4548C38.6203 40.0891 38.6109 38.4414 37.8511 37.5358C36.9159 36.1835 35.5299 35.5538 34.2426 34.9689C32.7551 34.293 31.3991 33.677 31.0219 32.075C30.7107 29.7354 31.7779 27.7286 33.5983 27.5018C35.171 27.3058 35.814 27.9476 36.5281 28.6603C36.6406 28.7726 36.7548 28.8866 36.8747 28.9994C39.2708 31.1003 39.4614 34.4114 39.6365 37.4527L39.6366 37.4531C39.6642 37.9322 39.6914 38.4046 39.7267 38.8646C39.7345 39.1355 39.7689 39.5048 39.8076 39.9195C39.954 41.4894 40.161 43.7102 39.2127 43.7102ZM37.3143 26.8142C38.0739 26.8382 38.7423 26.7026 39.3219 26.4418C39.2075 27.0662 39.0659 27.6846 38.8915 28.293C38.4243 27.7434 37.8963 27.2462 37.3143 26.8142Z" fill="black"/>
</svg>
